<svg width="52" height="52" viewBox="0 0 52 52" fill="none" xmlns="http://www.w3.org/2000/svg">
<path d="M19.6 14.6294H32.4" stroke="#EC6900" stroke-width="2" stroke-linecap="round" stroke-linejoin="round"/>
<path d="M15.3334 23.1627H36.6667" stroke="#EC6900" stroke-width="2" stroke-linecap="round" stroke-linejoin="round"/>
<path d="M30.1483 32.7851C32.4393 35.0761 32.4393 38.7907 30.1483 41.0818C27.8572 43.3729 24.1426 43.3729 21.8515 41.0818C19.5605 38.7907 19.5605 35.0761 21.8515 32.7851C24.1426 30.494 27.8572 30.494 30.1483 32.7851" stroke="#EC6900" stroke-width="2" stroke-linecap="round" stroke-linejoin="round"/>
<path d="M31.8667 36.9333L37.7334 42.8L32.1334 48.4L26.512 42.7787" stroke="#EC6900" stroke-width="2" stroke-linecap="round" stroke-linejoin="round"/>
<path d="M25.488 42.7787L19.8667 48.4L14.2667 42.8L20.1333 36.9333" stroke="#EC6900" stroke-width="2" stroke-linecap="round" stroke-linejoin="round"/>
<path d="M14.2667 42.8001H11.0667C8.70938 42.8001 6.80005 40.8907 6.80005 38.5334V10.0001C6.80005 7.64273 8.70938 5.7334 11.0667 5.7334H40.9334C43.2907 5.7334 45.2 7.64273 45.2 10.0001V38.5334C45.2 40.8907 43.2907 42.8001 40.9334 42.8001H37.7334" stroke="#EC6900" stroke-width="2" stroke-linecap="round" stroke-linejoin="round"/>
</svg>
