<svg width="52" height="52" viewBox="0 0 52 52" fill="none" xmlns="http://www.w3.org/2000/svg">
<path d="M34.537 39.7018H18.1932" stroke="#EC6900" stroke-width="2" stroke-linecap="round" stroke-linejoin="round"/>
<path d="M47.3425 28.1343H39.8727C39.2834 28.1343 38.8056 27.6565 38.8056 27.0672V19.5974H46.275" stroke="#EC6900" stroke-width="2" stroke-linecap="round" stroke-linejoin="round"/>
<path d="M39.9935 37.6088C40.9091 38.5243 41.1831 39.9012 40.6876 41.0975C40.1922 42.2938 39.0249 43.0739 37.7301 43.0739C36.4353 43.0739 35.2679 42.294 34.7723 41.0978C34.2768 39.9016 34.5506 38.5246 35.4661 37.609L35.4664 37.6087C36.7165 36.3586 38.7434 36.3586 39.9935 37.6087V37.6087" stroke="#EC6900" stroke-width="2" stroke-linecap="round" stroke-linejoin="round"/>
<path d="M4.65784 8.92627H21.7316" stroke="#EC6900" stroke-width="2" stroke-linecap="round" stroke-linejoin="round"/>
<path d="M21.7317 8.92627C22.9104 8.92627 23.8659 9.88179 23.8659 11.0605" stroke="#EC6900" stroke-width="2" stroke-linecap="round" stroke-linejoin="round"/>
<path d="M23.866 11.0604V23.8658" stroke="#EC6900" stroke-width="2" stroke-linecap="round" stroke-linejoin="round"/>
<path d="M10.1228 37.6087C11.0384 38.5243 11.3124 39.9012 10.8169 41.0975C10.3215 42.2938 9.15417 43.0739 7.85935 43.0739C6.56454 43.0739 5.39718 42.294 4.90161 41.0978C4.40605 39.9015 4.67988 38.5246 5.59541 37.6089L5.59605 37.6083C6.19635 37.008 7.01054 36.6708 7.85948 36.6709C8.70842 36.671 9.52255 37.0083 10.1227 37.6087V37.6087" stroke="#EC6900" stroke-width="2" stroke-linecap="round" stroke-linejoin="round"/>
<path d="M16.8968 37.6087C17.8124 38.5243 18.0863 39.9012 17.5909 41.0975C17.0954 42.2938 15.9282 43.0739 14.6333 43.0739C13.3385 43.0739 12.1712 42.294 11.6756 41.0978C11.18 39.9015 11.4539 38.5246 12.3694 37.6089L12.37 37.6083C12.9703 37.008 13.7845 36.6708 14.6335 36.6709C15.4824 36.671 16.2965 37.0083 16.8967 37.6087V37.6087" stroke="#EC6900" stroke-width="2" stroke-linecap="round" stroke-linejoin="round"/>
<path d="M40.9293 39.8724H45.2082C46.3869 39.8724 47.3424 38.9168 47.3424 37.7381V22.7394C47.3424 22.0766 47.1881 21.4228 46.8916 20.83L44.2525 15.5536C43.5294 14.1078 42.0515 13.1946 40.4349 13.1946H30.2687" stroke="#EC6900" stroke-width="2" stroke-linecap="round" stroke-linejoin="round"/>
<path d="M4.65784 30.2685H30.2685V8.92627" stroke="#EC6900" stroke-width="2" stroke-linecap="round" stroke-linejoin="round"/>
</svg>
