<svg width="52" height="52" viewBox="0 0 52 52" fill="none" xmlns="http://www.w3.org/2000/svg">
<path d="M17.4667 36.6667L21.7333 40.9334L17.4667 45.2001" stroke="#EC6900" stroke-width="2" stroke-linecap="round" stroke-linejoin="round"/>
<path d="M6.80005 32.4V36.6667C6.80005 39.0134 8.72005 40.9334 11.0667 40.9334H21.7334" stroke="#EC6900" stroke-width="2" stroke-linecap="round" stroke-linejoin="round"/>
<path d="M45.2 19.6V15.3333C45.2 12.9867 43.28 11.0667 40.9333 11.0667H30.2667" stroke="#EC6900" stroke-width="2" stroke-linecap="round" stroke-linejoin="round"/>
<path d="M34.5333 15.3334L30.2667 11.0667L34.5333 6.80005" stroke="#EC6900" stroke-width="2" stroke-linecap="round" stroke-linejoin="round"/>
<path fill-rule="evenodd" clip-rule="evenodd" d="M23.8667 19.3868V11.2801C23.8667 10.4268 23.44 9.57344 22.5867 9.14677L15.5467 5.09344C14.6934 4.66677 13.84 4.66677 12.9867 5.09344L5.94669 9.14677C5.09335 9.57344 4.66669 10.4268 4.66669 11.2801V19.3868C4.66669 20.2401 5.09335 21.0934 5.94669 21.5201L12.9867 25.5734C13.84 26.0001 14.6934 26.0001 15.5467 25.5734L22.5867 21.5201C23.44 21.0934 23.8667 20.2401 23.8667 19.3868Z" stroke="#EC6900" stroke-width="2" stroke-linecap="round" stroke-linejoin="round"/>
<path d="M5.09326 10L14.2666 15.3333L23.4399 10" stroke="#EC6900" stroke-width="2" stroke-linecap="round" stroke-linejoin="round"/>
<path d="M14.2667 15.3334V26" stroke="#EC6900" stroke-width="2" stroke-linecap="round" stroke-linejoin="round"/>
<path fill-rule="evenodd" clip-rule="evenodd" d="M47.3334 40.7201V32.6135C47.3334 31.7601 46.9067 30.9068 46.0534 30.4801L39.0134 26.4268C38.16 26.0001 37.3067 26.0001 36.4534 26.4268L29.4134 30.4801C28.56 30.9068 28.1334 31.7601 28.1334 32.6135V40.7201C28.1334 41.5735 28.56 42.4268 29.4134 42.8535L36.4534 46.9068C37.3067 47.3335 38.16 47.3335 39.0134 46.9068L46.0534 42.8535C46.9067 42.4268 47.3334 41.5735 47.3334 40.7201Z" stroke="#EC6900" stroke-width="2" stroke-linecap="round" stroke-linejoin="round"/>
<path d="M28.5599 31.3334L37.7333 36.6667L46.9066 31.3334" stroke="#EC6900" stroke-width="2" stroke-linecap="round" stroke-linejoin="round"/>
<path d="M37.7334 36.6667V47.3334" stroke="#EC6900" stroke-width="2" stroke-linecap="round" stroke-linejoin="round"/>
</svg>
