<svg width="52" height="52" viewBox="0 0 52 52" fill="none" xmlns="http://www.w3.org/2000/svg">
<path fill-rule="evenodd" clip-rule="evenodd" d="M15.7473 23.232C14.9171 24.0771 13.5576 24.0771 12.7274 23.232C10.5526 21.0166 6.79211 16.5881 6.79211 12.4413C6.79211 8.14302 10.1258 4.65784 14.2384 4.65784C18.3511 4.65784 21.6847 8.14302 21.6847 12.4413C21.6847 16.5881 17.9242 21.0166 15.7473 23.232Z" stroke="#EC6900" stroke-width="2" stroke-linecap="round" stroke-linejoin="round"/>
<path d="M14.2363 11.784C13.9418 11.784 13.7049 12.023 13.7049 12.3176C13.7049 12.61 13.9439 12.849 14.2363 12.849C14.5308 12.849 14.7677 12.61 14.7677 12.3176C14.7698 12.023 14.5308 11.784 14.2363 11.784" stroke="#EC6900" stroke-width="2" stroke-linecap="round" stroke-linejoin="round"/>
<path fill-rule="evenodd" clip-rule="evenodd" d="M43.4154 37.8514L37.2497 41.4987C36.4792 41.9555 36.4792 43.0717 37.2497 43.5262L43.4154 47.1736C44.2072 47.6432 45.2082 47.0712 45.2082 46.1513V38.8736C45.2082 37.9538 44.2072 37.3818 43.4154 37.8514Z" stroke="#EC6900" stroke-width="2" stroke-linecap="round" stroke-linejoin="round"/>
<path d="M28.1343 42.4293H17.4632C15.1049 42.4293 13.1948 40.5192 13.1948 38.1609V38.1609C13.1948 35.8026 15.1049 33.8924 17.4632 33.8924H29.5237C32.2918 33.8924 34.537 31.6472 34.537 28.8791V28.8791C34.537 26.111 32.2918 23.8658 29.5237 23.8658H23.8659" stroke="#EC6900" stroke-width="2" stroke-linecap="round" stroke-linejoin="round"/>
</svg>
