<svg width="240" height="48" viewBox="0 0 240 48" fill="none" xmlns="http://www.w3.org/2000/svg">
<path fill-rule="evenodd" clip-rule="evenodd" d="M50.0477 46.7035H74.2375C82.2435 46.7035 88.3441 44.6349 92.5393 40.4979C96.7344 36.3608 98.832 30.707 98.832 23.5366C98.9099 19.4066 97.9571 15.3222 96.0598 11.6527C94.1908 8.15532 91.2917 5.31679 87.7553 3.52166C83.555 1.46175 78.9134 0.463706 74.2375 0.615073H46.0979V10.1075H50.0477V46.7035ZM65.8594 10.1075H71.2322C75.1329 10.1075 77.9665 11.2276 79.7329 13.4678C81.4993 15.7081 82.3825 19.0643 82.3825 23.5366C82.3825 28.1234 81.4993 31.5573 79.7329 33.8139C77.9665 36.0705 75.1329 37.2111 71.2322 37.2111H65.8594V10.1075Z" fill="white"/>
<path d="M27.1215 0.61507H36.6158V10.1075H27.1215V0.61507Z" fill="white"/>
<path fill-rule="evenodd" clip-rule="evenodd" d="M119.759 47.4884C114.035 47.4884 109.537 46.0412 106.266 43.1469V43.1101C102.995 40.2076 101.359 36.0705 101.359 30.6988C101.32 27.6905 102.087 24.7266 103.579 22.114C105.048 19.5933 107.199 17.5397 109.786 16.1904C112.621 14.7356 115.776 14.0146 118.962 14.0933C121.96 14.0126 124.925 14.7367 127.548 16.1904C129.908 17.5456 131.818 19.5623 133.044 21.9913C134.339 24.6213 134.986 27.5226 134.933 30.4536V32.9064H114.484C114.694 33.6021 115.04 34.2496 115.501 34.8115C115.962 35.3734 116.529 35.8388 117.171 36.1809C118.65 36.9037 120.284 37.2531 121.93 37.1988C125.189 37.2681 128.382 36.2688 131.02 34.3535L134.7 42.5827C132.709 44.2125 130.434 45.4599 127.99 46.2619C125.331 47.1128 122.551 47.527 119.759 47.4884ZM122.237 27.3385C122.237 24.3297 120.973 22.8253 118.446 22.8253C116.018 22.8335 114.595 24.3379 114.178 27.3385H122.237Z" fill="white"/>
<path d="M154.964 0.61507H137.889V7.72823H141.373V38.7931H137.889V46.7034H158.448V38.7931H154.964V0.61507Z" fill="white"/>
<path fill-rule="evenodd" clip-rule="evenodd" d="M231.508 16.1046C234.129 17.3978 236.313 19.4319 237.788 21.9546C239.297 24.6313 240.059 27.6638 239.996 30.7356C240.057 33.8033 239.295 36.8313 237.788 39.5044C236.314 42.0376 234.131 44.0839 231.508 45.3912C228.577 46.7724 225.376 47.4886 222.136 47.4886C218.896 47.4886 215.696 46.7724 212.764 45.3912C210.138 44.0841 207.951 42.038 206.472 39.5044C204.965 36.8313 204.203 33.8033 204.264 30.7356C204.201 27.6638 204.963 24.6313 206.472 21.9546C207.952 19.4315 210.14 17.3976 212.764 16.1046C215.704 14.755 218.901 14.0564 222.136 14.0564C225.371 14.0564 228.568 14.755 231.508 16.1046ZM224.218 36.7802C224.877 36.4953 225.471 36.0785 225.963 35.5554C226.96 34.1531 227.449 32.453 227.349 30.7356C227.459 29.0455 226.983 27.3691 226 25.9894C225.501 25.4659 224.9 25.0492 224.235 24.7644C223.57 24.4797 222.854 24.3329 222.13 24.3329C221.406 24.3329 220.69 24.4797 220.025 24.7644C219.36 25.0492 218.759 25.4659 218.26 25.9894C217.277 27.3691 216.801 29.0455 216.911 30.7356C216.811 32.453 217.3 34.1531 218.297 35.5554C218.789 36.0785 219.383 36.4953 220.042 36.7802C220.701 37.0651 221.412 37.2121 222.13 37.2121C222.848 37.2121 223.559 37.0651 224.218 36.7802Z" fill="white"/>
<path d="M200.498 38.7686H202.939V46.6544H191.188L178.406 31.1281V38.7686H181.877V46.6544H161.453V38.7686H164.925V8.50087H161.453V0.61507H178.406V29.7913L187.557 22.764H184.085V14.8782H202.546V22.764H199.786L191.74 28.9941L200.498 38.7686Z" fill="white"/>
<path d="M27.1215 10.1074H0V37.2233H27.1215V10.1074Z" fill="#EC6900"/>
</svg>
