<svg width="51" height="42" viewBox="0 0 51 42" fill="none" xmlns="http://www.w3.org/2000/svg">
<path d="M22.6667 4.65804C20.2673 6.05545 18.3273 7.27172 16.8468 8.30684C15.3664 9.2902 13.8604 10.61 12.3288 12.2662C10.8994 13.8189 9.8018 15.4492 9.03604 17.1571C8.27027 18.8651 7.73423 21.0647 7.42793 23.756H11.1036C14.2688 23.756 16.7447 24.5582 18.5315 26.1627C20.3694 27.7153 21.2883 30.0185 21.2883 33.0721C21.2883 35.2458 20.4715 37.2902 18.8378 39.2052C17.2553 41.0684 15.0601 42 12.2523 42C7.86186 42 4.72222 40.5508 2.83333 37.6525C0.944444 34.7024 0 30.8466 0 26.085C0 22.7209 0.714715 19.6673 2.14414 16.9242C3.57357 14.1294 5.30931 11.6451 7.35135 9.47135C9.44444 7.24584 11.6652 5.35675 14.0135 3.80407C16.3619 2.25139 18.3273 0.983364 19.9099 0L22.6667 4.65804ZM51 4.65804C48.6006 6.05545 46.6607 7.27172 45.1802 8.30684C43.6997 9.2902 42.1937 10.61 40.6622 12.2662C39.1817 13.8706 38.0586 15.5268 37.2928 17.2348C36.5781 18.8909 36.0676 21.0647 35.7613 23.756H39.4369C42.6021 23.756 45.0781 24.5582 46.8649 26.1627C48.7027 27.7153 49.6216 30.0185 49.6216 33.0721C49.6216 35.2458 48.8048 37.2902 47.1712 39.2052C45.5886 41.0684 43.3934 42 40.5856 42C36.1952 42 33.0556 40.5508 31.1667 37.6525C29.2778 34.7024 28.3333 30.8466 28.3333 26.085C28.3333 22.7209 29.048 19.6673 30.4775 16.9242C31.9069 14.1294 33.6426 11.6451 35.6847 9.47135C37.7778 7.24584 39.9985 5.35675 42.3468 3.80407C44.6952 2.25139 46.6607 0.983364 48.2432 0L51 4.65804Z" fill="#EC6900"/>
</svg>
