<svg width="48" height="48" viewBox="0 0 48 48" fill="none" xmlns="http://www.w3.org/2000/svg">
<path fill-rule="evenodd" clip-rule="evenodd" d="M32.7316 11.2667V20.6106H40.705C41.1785 20.5998 41.6186 20.8537 41.8463 21.2691C42.074 21.6844 42.0513 22.192 41.7874 22.5854L31.6512 37.4376C31.3316 37.9049 30.7472 38.1128 30.2043 37.9522C29.6615 37.7916 29.2841 37.2992 29.2702 36.7333V27.3834H21.3009C20.8273 27.3942 20.3872 27.1403 20.1595 26.7249C19.9319 26.3096 19.9546 25.802 20.2184 25.4086L30.3506 10.5624C30.6702 10.0951 31.2547 9.88724 31.7975 10.0478C32.3404 10.2084 32.7177 10.7008 32.7316 11.2667V11.2667Z" stroke="#EC6900" stroke-width="2" stroke-linecap="round" stroke-linejoin="round"/>
<path d="M17.9975 36.0048H7.49313" stroke="#EC6900" stroke-width="2" stroke-linecap="round" stroke-linejoin="round"/>
<path d="M12.7453 25.0004H3.99167" stroke="#EC6900" stroke-width="2" stroke-linecap="round" stroke-linejoin="round"/>
<path d="M17.9975 13.996H7.49313" stroke="#EC6900" stroke-width="2" stroke-linecap="round" stroke-linejoin="round"/>
</svg>
