<svg width="40" height="40" viewBox="0 0 40 40" fill="none" xmlns="http://www.w3.org/2000/svg">
<path d="M30.6067 9.3934C36.4646 15.2513 36.4646 24.7487 30.6067 30.6066C24.7488 36.4644 15.2514 36.4644 9.39352 30.6066C3.53566 24.7487 3.53566 15.2512 9.39352 9.3934C15.2514 3.53553 24.7489 3.53553 30.6067 9.3934" stroke="#EC6900" stroke-width="2" stroke-linecap="round" stroke-linejoin="round"/>
<path d="M29.0217 31.7183C28.7267 30.9749 28.2683 30.3083 27.6817 29.7649C26.69 28.8449 25.3933 28.3333 24.04 28.3333C21.7833 28.3333 18.2167 28.3333 15.96 28.3333C14.6067 28.3333 13.31 28.8449 12.3167 29.7649C11.73 30.3083 11.2734 30.9749 10.9767 31.7183" stroke="#EC6900" stroke-width="2" stroke-linecap="round" stroke-linejoin="round"/>
<path d="M22.357 17.6431C23.6587 18.9448 23.6587 21.0554 22.357 22.3571C21.0552 23.6589 18.9447 23.6589 17.6429 22.3571C16.3412 21.0554 16.3412 18.9448 17.6429 17.6431C18.9447 16.3413 21.0552 16.3413 22.357 17.6431" stroke="#EC6900" stroke-width="2" stroke-linecap="round" stroke-linejoin="round"/>
<path d="M20 5V8.33333" stroke="#EC6900" stroke-width="2" stroke-linecap="round" stroke-linejoin="round"/>
<path d="M27.5 7.0166L26.05 9.5166" stroke="#EC6900" stroke-width="2" stroke-linecap="round" stroke-linejoin="round"/>
<path d="M12.5 7.0166L13.95 9.5166" stroke="#EC6900" stroke-width="2" stroke-linecap="round" stroke-linejoin="round"/>
<path d="M7.01666 12.4999L9.51666 13.9499" stroke="#EC6900" stroke-width="2" stroke-linecap="round" stroke-linejoin="round"/>
<path d="M35 20.0001H32.5" stroke="#EC6900" stroke-width="2" stroke-linecap="round" stroke-linejoin="round"/>
<path d="M7.5 20.0001H5" stroke="#EC6900" stroke-width="2" stroke-linecap="round" stroke-linejoin="round"/>
<path d="M22.9833 18.55L32.9833 12.5" stroke="#EC6900" stroke-width="2" stroke-linecap="round" stroke-linejoin="round"/>
</svg>
